PathFileType	4	(X/Y/Z)	D:/ViconDB/Teaching_2017/Workshops/171025_A1_Demo01/Demo/171025_Guy_ROM_body_01.trc
DataRate	CameraRate	NumFrames	NumMarkers	Units	OrigDataRate	OrigDataStartFrame	OrigNumFrames
120.000000	120.000000	4	130	mm	120.000000	16	120
Frame#	Time	System			Vantage_5_2106396			Vantage_5_2106443			Vantage_5_2106435			Vantage_5_2106735			Vantage_5_2106428			Vantage_5_2106437			Vantage_5_2106434			Vantage_5_2106460			Vantage_5_2106228			Vantage_5_2106436			Vantage_5_2106467			Unlabeled_Markers			Labeling			Hips			Spine			Head			Head_End			LeftShoulder			LeftArm			LeftForeArm			LeftHand			LeftHandThumbEnd			LeftHandEnd			RightShoulder			RightArm			RightForeArm			RightHand			RightHandThumbEnd			RightHandEnd			LeftUpLeg			LeftLeg			LeftFoot			LeftToeBase			LeftToeEnd			RightUpLeg			RightLeg			RightFoot			RightToeBase			RightToeEnd			ARIEL			LFHD			RFHD			LBHD			RBHD			C7			T10			CLAV			STRN			LBSH			LFSH			LUPA			LELB			LIEL			LWRE			LOWR			LIWR			LOHAND			LIHAND			RBSH			RFSH			RUPA			RELB			RIEL			RWRE			ROWR			RIWR			ROHAND			RIHAND			LFWT			LMWT			LBWT			LHIP			LKNE			LKNI			LSHN			LANK			LHEL			LMT5			LMT1			LTOE			RFWT			RMWT			RBWT			RHIP			RKNE			RKNI			RSHN			RANK			RHEL			RMT5			RMT1			RTOE			Solving			Hips			Spine			Spine1			Spine2			Spine3			Neck			Head			HeadEnd			RightShoulder			RightArm			RightForeArm			RightForeArmRoll			RightHand			RightHandEnd			R_FingersEnd			RightHandThumb1			RightHandThumb2			LeftShoulder			LeftArm			LeftForeArm			LeftForeArmRoll			LeftHand			LeftHandEnd			L_FingersEnd			LeftHandThumb1			LeftHandThumb2			RightUpLeg			RightLeg			RightFoot			RightToeBase			RightToeBaseEnd			LeftUpLeg			LeftLeg			LeftFoot			LeftToeBase			LeftToeBaseEnd			
		X0	Y0	Z0	X1	Y1	Z1	X2	Y2	Z2	X3	Y3	Z3	X4	Y4	Z4	X5	Y5	Z5	X6	Y6	Z6	X7	Y7	Z7	X8	Y8	Z8	X9	Y9	Z9	X10	Y10	Z10	X11	Y11	Z11	X12	Y12	Z12	X13	Y13	Z13	X14	Y14	Z14	X15	Y15	Z15	X16	Y16	Z16	X17	Y17	Z17	X18	Y18	Z18	X19	Y19	Z19	X20	Y20	Z20	X21	Y21	Z21	X22	Y22	Z22	X23	Y23	Z23	X24	Y24	Z24	X25	Y25	Z25	X26	Y26	Z26	X27	Y27	Z27	X28	Y28	Z28	X29	Y29	Z29	X30	Y30	Z30	X31	Y31	Z31	X32	Y32	Z32	X33	Y33	Z33	X34	Y34	Z34	X35	Y35	Z35	X36	Y36	Z36	X37	Y37	Z37	X38	Y38	Z38	X39	Y39	Z39	X40	Y40	Z40	X41	Y41	Z41	X42	Y42	Z42	X43	Y43	Z43	X44	Y44	Z44	X45	Y45	Z45	X46	Y46	Z46	X47	Y47	Z47	X48	Y48	Z48	X49	Y49	Z49	X50	Y50	Z50	X51	Y51	Z51	X52	Y52	Z52	X53	Y53	Z53	X54	Y54	Z54	X55	Y55	Z55	X56	Y56	Z56	X57	Y57	Z57	X58	Y58	Z58	X59	Y59	Z59	X60	Y60	Z60	X61	Y61	Z61	X62	Y62	Z62	X63	Y63	Z63	X64	Y64	Z64	X65	Y65	Z65	X66	Y66	Z66	X67	Y67	Z67	X68	Y68	Z68	X69	Y69	Z69	X70	Y70	Z70	X71	Y71	Z71	X72	Y72	Z72	X73	Y73	Z73	X74	Y74	Z74	X75	Y75	Z75	X76	Y76	Z76	X77	Y77	Z77	X78	Y78	Z78	X79	Y79	Z79	X80	Y80	Z80	X81	Y81	Z81	X82	Y82	Z82	X83	Y83	Z83	X84	Y84	Z84	X85	Y85	Z85	X86	Y86	Z86	X87	Y87	Z87	X88	Y88	Z88	X89	Y89	Z89	X90	Y90	Z90	X91	Y91	Z91	X92	Y92	Z92	X93	Y93	Z93	X94	Y94	Z94	X95	Y95	Z95	X96	Y96	Z96	X97	Y97	Z97	X98	Y98	Z98	X99	Y99	Z99	X100	Y100	Z100	X101	Y101	Z101	X102	Y102	Z102	X103	Y103	Z103	X104	Y104	Z104	X105	Y105	Z105	X106	Y106	Z106	X107	Y107	Z107	X108	Y108	Z108	X109	Y109	Z109	X110	Y110	Z110	X111	Y111	Z111	X112	Y112	Z112	X113	Y113	Z113	X114	Y114	Z114	X115	Y115	Z115	X116	Y116	Z116	X117	Y117	Z117	X118	Y118	Z118	X119	Y119	Z119	X120	Y120	Z120	X121	Y121	Z121	X122	Y122	Z122	X123	Y123	Z123	X124	Y124	Z124	X125	Y125	Z125	X126	Y126	Z126	X127	Y127	Z127	X128	Y128	Z128	X129	Y129	Z129	
16	0.133333																																											-6.497619	971.003113	-13.622881																																																																												-34.912346	1842.983765	-26.923107	25.689060	1795.215820	65.163467	-101.512978	1789.677368	45.163097	66.291862	1733.715698	-50.740402	-89.821938	1715.961548	-83.419479	-6.887288	1552.584717	-106.443054	-0.270111	1373.854126	-134.675949	-11.025739	1484.532227	69.652771	-4.482238	1348.717163	113.586899	143.243408	1500.735962	-116.779900	126.642532	1506.893555	22.845919	238.288483	1356.326172	-37.270885	263.439697	1168.685791	-10.748471	237.693024	1221.133789	-70.357033	260.792664	1055.409424	51.180458	263.660004	927.271179	35.659298	209.643738	934.473694	100.235420	276.250610	873.290527	93.657043	256.709961	888.781921	119.636581	-169.015594	1500.907471	-115.410568	-156.641815	1509.045776	2.475173	-258.302368	1362.554199	-56.637535	-294.639893	1167.803589	-57.279682	-240.516571	1207.740723	-111.485939	-304.265686	1048.708252	-17.184275	-288.249176	919.976318	-15.841397	-262.455750	945.265198	58.189728	-309.619202	866.400513	39.719051	-299.259918	872.943176	79.343178	118.605957	1090.779419	89.487595	184.727814	981.444153	-20.013546	118.235268	1170.888916	-97.882614	182.470291	662.528076	-15.906804	174.769516	549.292480	-13.861533	112.263756	629.679810	49.218670	195.807297	332.847809	-94.043564	179.505905	124.357941	-135.206528	129.210556	67.813644	-191.432693	207.937164	79.571907	42.424152	126.746880	85.847290	51.501293	163.466370	84.004135	96.162437	-142.341675	1093.849731	88.066025	-201.717026	1011.651123	-61.364170	-116.911339	1156.673950	-115.076317	-137.290436	753.522095	66.890175	-186.473373	565.638062	-19.532076	-162.314453	650.524048	43.461525	-199.525711	412.751526	-92.191071	-179.182312	127.337212	-146.397354	-116.469353	76.005241	-194.630981	-204.441635	76.953506	27.104958	-124.453049	76.181381	42.918194	-178.056808	79.152878	83.228889				-6.077688	970.546143	-20.664776																																																																																																																																				
17	0.141667																																											-6.567824	970.926697	-13.498793																																																																												-34.909435	1842.955322	-26.654778	25.789307	1795.174927	65.431297	-101.485046	1789.619019	45.448524	66.298195	1733.658691	-50.530216	-89.865227	1715.908936	-83.130569	-6.917941	1552.525146	-106.220398	-0.329541	1373.833252	-134.482376	-11.118195	1484.415405	69.827759	-4.560283	1348.604858	113.748283	143.179825	1500.693115	-116.583870	126.461174	1506.746704	22.957077	238.232452	1356.268311	-37.060215	263.401459	1168.635132	-10.544783	237.657608	1221.076294	-70.179710	260.725372	1055.359497	51.348557	263.604492	927.222046	35.798347	209.687714	934.475525	100.474419	276.178558	873.230103	93.789162	256.639099	888.705078	119.808624	-169.130692	1500.682251	-115.140579	-156.684921	1508.984131	2.679319	-258.665710	1362.150024	-56.626282	-294.727417	1167.763672	-56.984695	-240.640259	1207.723999	-111.269661	-304.414490	1048.715576	-16.888813	-288.392151	919.927429	-15.537675	-262.672211	945.254944	58.475700	-309.745453	866.419739	40.065964	-299.600372	872.970032	79.754051	117.698898	1090.154053	88.741570	184.735672	981.407288	-19.887568	118.233185	1170.863647	-97.744873	182.525726	662.517395	-15.845838	174.801453	549.279236	-13.792164	112.242294	629.650330	49.279888	195.795120	332.817200	-94.006996	179.459686	124.335167	-135.197784	129.168274	67.744316	-191.412796	207.898972	79.498367	42.419701	126.716156	85.770447	51.490608	163.409515	83.889359	96.152763	-142.356277	1093.750488	88.172142	-201.699341	1011.586853	-61.277870	-116.918297	1156.641846	-114.947441	-137.354858	753.429993	66.937386	-186.495544	565.565002	-19.505753	-162.347305	650.456726	43.486729	-199.172211	412.537811	-92.444489	-179.231644	127.253471	-146.337967	-116.492851	75.964722	-194.663666	-204.497681	76.871307	27.098486	-124.529617	76.072845	42.889717	-178.129211	79.075928	83.221046				-6.500979	970.440613	-21.099703																																																																																																																																				
18	0.150000																																											-6.577506	970.845459	-13.615487																																																																												-34.870586	1842.885498	-26.357334	25.854504	1795.108521	65.722313	-101.397758	1789.539429	45.813858	66.292595	1733.588623	-50.278538	-89.888588	1715.852783	-82.842865	-6.942170	1552.455566	-105.967583	-0.319668	1373.819580	-134.285629	-11.174487	1484.297852	70.048363	-4.595814	1348.460083	113.955795	143.147415	1500.635620	-116.371559	126.500153	1506.711304	23.230259	238.249115	1356.206055	-36.824539	263.398865	1168.560669	-10.290023	237.673828	1220.987061	-69.953079	260.728821	1055.273193	51.563648	263.614044	927.153503	36.036774	209.705704	934.417358	100.740311	276.153534	873.143799	94.006966	257.183899	889.159302	120.346130	-169.141464	1500.628418	-114.868355	-156.694199	1508.873901	2.938388	-258.730103	1362.041016	-56.422874	-294.788605	1167.704102	-56.689236	-240.720078	1207.664673	-111.004494	-304.470398	1048.701172	-16.591145	-288.510925	919.925293	-15.236859	-262.726349	945.217102	58.800285	-309.824982	866.364441	40.407070	-299.659576	872.934326	80.107964	117.828972	1090.142212	88.939560	184.749863	981.368652	-19.725746	118.261292	1170.855591	-97.618088	182.583969	662.455750	-15.719675	174.841644	549.197449	-13.694589	112.361641	629.621521	49.394489	195.799057	332.753815	-93.924538	179.467621	124.293869	-135.143738	129.090225	67.693947	-191.396851	207.894318	79.421478	42.439537	126.706528	85.680023	51.547394	163.402069	83.786224	96.183182	-142.307877	1093.625366	88.298523	-201.691193	1011.528564	-61.209682	-116.882889	1156.619995	-114.836220	-137.323364	753.339417	67.019165	-186.495758	565.469055	-19.484491	-162.314621	650.351685	43.559948	-199.117661	412.448853	-92.440125	-179.257874	127.197243	-146.349655	-116.544136	75.855179	-194.598801	-204.481766	76.777603	27.131151	-124.546509	75.969048	42.873768	-178.152435	78.961723	83.228821				-6.389884	970.362854	-20.987566																																																																																																																																				
19	0.158333																																											-6.524050	970.859863	-13.410330																																																																												-34.791107	1842.859985	-26.016754	25.926529	1795.011108	65.992691	-101.265480	1789.516357	46.207600	66.347298	1733.532104	-49.981419	-89.867683	1715.905884	-82.560104	-6.947972	1552.516724	-105.727196	-0.358149	1373.834595	-134.044693	-11.136733	1484.258545	70.298203	-4.555356	1348.391357	114.180824	143.160980	1500.604614	-116.119865	126.541176	1506.634766	23.483627	238.256500	1356.150635	-36.585205	263.433594	1168.509521	-10.037713	237.686462	1220.928223	-69.736076	260.743347	1055.207275	51.771263	263.601349	927.115112	36.242619	211.189255	935.773560	102.120834	276.131042	873.059509	94.214516	257.068146	889.031250	120.517181	-169.112106	1500.661377	-114.643333	-156.627792	1508.856079	3.249500	-258.691986	1362.066650	-56.144161	-294.823761	1167.797729	-56.437775	-240.773605	1207.712769	-110.712440	-304.510681	1048.734619	-16.279016	-288.589630	920.002136	-14.944312	-262.697144	945.318909	59.144848	-309.867310	866.427673	40.741657	-299.636841	872.990845	80.484055	118.048988	1090.199951	89.233170	184.793259	981.385864	-19.599079	118.310852	1170.884277	-97.423851	182.612762	662.384216	-15.643078	174.892502	549.091980	-13.604276	112.535782	629.656494	49.524242	195.841019	332.695709	-93.865135	179.453842	124.213394	-135.126419	129.153351	67.763855	-191.384918	207.910538	79.386978	42.452427	126.748550	85.661171	51.574894	163.455215	83.766724	96.222839	-142.166275	1093.609863	88.498413	-201.918442	1011.412109	-61.736263	-116.836609	1156.616211	-114.653923	-137.214355	753.339233	67.153099	-186.405563	565.502319	-19.439514	-162.160202	650.345825	43.676590	-199.032867	412.545471	-92.445419	-179.197998	127.226105	-146.390182	-117.003464	75.658295	-194.238525	-204.427567	76.756187	27.146395	-124.476128	75.969147	42.920918	-178.072388	78.977867	83.269615				-6.202146	970.335938	-20.764261																																																																																																																																				
